<?xml version="1.0" encoding="iso-8859-1"?>
<!-- Uploaded to: SVG Repo, www.svgrepo.com, Generator: SVG Repo Mixer Tools -->
<svg fill="#000000" height="800px" width="800px" version="1.1" id="Layer_1" xmlns="http://www.w3.org/2000/svg" xmlns:xlink="http://www.w3.org/1999/xlink" 
	 viewBox="0 0 472.615 472.615" xml:space="preserve">
<g>
	<g>
		<path d="M436.386,226.462C431.362,123.736,348.88,41.254,246.154,36.23V0h-19.692v36.23
			C123.727,41.254,41.244,123.736,36.22,226.462H0v19.692h36.22c5.024,102.726,87.507,185.208,190.242,190.232v36.23h19.692v-36.23
			c102.726-5.024,185.208-87.506,190.232-190.232h36.23v-19.692H436.386z M416.693,246.154
			c-4.983,91.871-78.668,165.557-170.54,170.54V328.99h-19.692v87.703c-91.881-4.982-165.567-78.668-170.549-170.54h87.703v-19.692
			H55.912c4.983-91.872,78.668-165.558,170.549-170.54v87.693h19.692V55.922c91.871,4.983,165.557,78.668,170.54,170.54H328.99
			v19.692H416.693z"/>
	</g>
</g>
</svg>